<svg xmlns="http://www.w3.org/2000/svg" xmlns:xlink="http://www.w3.org/1999/xlink">
  <defs>
    <symbol viewBox="0 0 18 18" id="linkedIn">
      <path d="M4.51562 16.7148H1.24609V6.20312H4.51562V16.7148ZM2.86328 4.79688C1.84375 4.79688 1 3.91797 1 2.86328C1 1.84375 1.84375 1 2.86328 1C3.91797 1 4.76172 1.84375 4.76172 2.86328C4.76172 3.91797 3.91797 4.79688 2.86328 4.79688ZM16.7148 16.7148H13.4805V11.6172C13.4805 10.3867 13.4453 8.83984 11.7578 8.83984C10.0703 8.83984 9.82422 10.1406 9.82422 11.5117V16.7148H6.55469V6.20312H9.68359V7.64453H9.71875C10.1758 6.83594 11.2305 5.95703 12.8125 5.95703C16.1172 5.95703 16.75 8.13672 16.75 10.9492V16.7148H16.7148Z"/>
    </symbol>
    <symbol viewBox="0 0 18 18" id="instagram">
      <path d="M8.89258 4.81445C11.1074 4.81445 12.9355 6.64258 12.9355 8.85742C12.9355 11.1074 11.1074 12.9004 8.89258 12.9004C6.64258 12.9004 4.84961 11.1074 4.84961 8.85742C4.84961 6.64258 6.64258 4.81445 8.89258 4.81445ZM8.89258 11.4941C10.334 11.4941 11.4941 10.334 11.4941 8.85742C11.4941 7.41602 10.334 6.25586 8.89258 6.25586C7.41602 6.25586 6.25586 7.41602 6.25586 8.85742C6.25586 10.334 7.45117 11.4941 8.89258 11.4941ZM14.0254 4.67383C14.0254 5.20117 13.6035 5.62305 13.0762 5.62305C12.5488 5.62305 12.127 5.20117 12.127 4.67383C12.127 4.14648 12.5488 3.72461 13.0762 3.72461C13.6035 3.72461 14.0254 4.14648 14.0254 4.67383ZM16.6973 5.62305C16.7676 6.92383 16.7676 10.8262 16.6973 12.127C16.627 13.3926 16.3457 14.4824 15.4316 15.4316C14.5176 16.3457 13.3926 16.627 12.127 16.6973C10.8262 16.7676 6.92383 16.7676 5.62305 16.6973C4.35742 16.627 3.26758 16.3457 2.31836 15.4316C1.4043 14.4824 1.12305 13.3926 1.05273 12.127C0.982422 10.8262 0.982422 6.92383 1.05273 5.62305C1.12305 4.35742 1.4043 3.23242 2.31836 2.31836C3.26758 1.4043 4.35742 1.12305 5.62305 1.05273C6.92383 0.982422 10.8262 0.982422 12.127 1.05273C13.3926 1.12305 14.5176 1.4043 15.4316 2.31836C16.3457 3.23242 16.627 4.35742 16.6973 5.62305ZM15.0098 13.498C15.4316 12.4785 15.3262 10.0176 15.3262 8.85742C15.3262 7.73242 15.4316 5.27148 15.0098 4.2168C14.7285 3.54883 14.2012 2.98633 13.5332 2.74023C12.4785 2.31836 10.0176 2.42383 8.89258 2.42383C7.73242 2.42383 5.27148 2.31836 4.25195 2.74023C3.54883 3.02148 3.02148 3.54883 2.74023 4.2168C2.31836 5.27148 2.42383 7.73242 2.42383 8.85742C2.42383 10.0176 2.31836 12.4785 2.74023 13.498C3.02148 14.2012 3.54883 14.7285 4.25195 15.0098C5.27148 15.4316 7.73242 15.3262 8.89258 15.3262C10.0176 15.3262 12.4785 15.4316 13.5332 15.0098C14.2012 14.7285 14.7637 14.2012 15.0098 13.498Z"/>
    </symbol>
    <symbol viewBox="0 0 18 18" id="behance">
      <path d="M7.25 8.0625C8.59375 8.4375 9.25 9.46875 9.25 10.8438C9.25 13.0938 7.375 14.0625 5.34375 14.0625H0V3H5.21875C7.09375 3 8.75 3.53125 8.75 5.75C8.75 6.84375 8.21875 7.5625 7.25 8.0625ZM2.40625 4.875V7.46875H4.875C5.75 7.46875 6.375 7.09375 6.375 6.15625C6.375 5.125 5.59375 4.875 4.71875 4.875H2.40625ZM5.03125 12.1875C6 12.1875 6.8125 11.8438 6.8125 10.7188C6.8125 9.59375 6.15625 9.125 5.0625 9.125H2.40625V12.1875H5.03125ZM16.2188 4.65625H11.75V3.5625H16.2188V4.65625ZM18 10.1875C18 10.3125 17.9688 10.4688 17.9688 10.5938H12.1875C12.1875 11.875 12.875 12.625 14.1563 12.625C14.8125 12.625 15.6875 12.2813 15.9063 11.5938H17.8438C17.25 13.4063 16 14.2813 14.0938 14.2813C11.5625 14.2813 9.96875 12.5625 9.96875 10.0625C9.96875 7.65625 11.625 5.8125 14.0938 5.8125C16.5938 5.8125 18 7.8125 18 10.1875ZM12.1875 9.1875H15.7813C15.6875 8.125 15.125 7.5 14 7.5C12.9688 7.5 12.25 8.15625 12.1875 9.1875Z"/>
    </symbol>
    <symbol viewBox="0 0 18 18" id="show">
      <path fill-rule="evenodd" clip-rule="evenodd" d="M14.4402 4.82714C16.0334 5.94664 17.2585 7.50134 17.9643 9.29909C18.0119 9.42892 18.0119 9.57108 17.9643 9.70091C17.2585 11.4987 16.0334 13.0534 14.4402 14.1729C12.8471 15.2924 10.9557 15.9276 9 16C7.04425 15.9276 5.15292 15.2924 3.55977 14.1729C1.96661 13.0534 0.741462 11.4987 0.0357458 9.70091C-0.0119153 9.57108 -0.0119153 9.42892 0.0357458 9.29909C0.741462 7.50134 1.96661 5.94664 3.55977 4.82714C5.15292 3.70765 7.04425 3.07243 9 3C10.9557 3.07243 12.8471 3.70765 14.4402 4.82714ZM1.24178 9.5C2.45981 12.4959 5.81991 14.8182 9 14.8182C12.1801 14.8182 15.5402 12.4959 16.7582 9.5C15.5402 6.50409 12.1801 4.18182 9 4.18182C5.81991 4.18182 2.45981 6.50409 1.24178 9.5ZM6.99983 6.55199C7.59186 6.16241 8.28791 5.95447 8.99994 5.95447C9.95475 5.95447 10.8704 6.32801 11.5456 6.99291C12.2207 7.65781 12.6 8.55961 12.6 9.49992C12.6 10.2011 12.3889 10.8866 11.9933 11.4697C11.5977 12.0527 11.0355 12.5071 10.3776 12.7755C9.71981 13.0438 8.99595 13.1141 8.2976 12.9773C7.59924 12.8405 6.95777 12.5028 6.45428 12.0069C5.9508 11.5111 5.60792 10.8794 5.46901 10.1916C5.3301 9.50386 5.4014 8.79098 5.67388 8.14314C5.94636 7.49529 6.4078 6.94156 6.99983 6.55199ZM7.66653 11.4652C8.06122 11.7249 8.52525 11.8636 8.99994 11.8636C9.63648 11.8636 10.2469 11.6145 10.697 11.1713C11.1471 10.728 11.4 10.1268 11.4 9.49992C11.4 9.03244 11.2592 8.57546 10.9955 8.18676C10.7318 7.79806 10.357 7.49511 9.91841 7.31621C9.47985 7.13731 8.99728 7.0905 8.53171 7.1817C8.06614 7.2729 7.63849 7.49802 7.30284 7.82858C6.96718 8.15914 6.7386 8.5803 6.64599 9.0388C6.55338 9.4973 6.60091 9.97255 6.78257 10.4044C6.96422 10.8363 7.27184 11.2055 7.66653 11.4652Z"/>
    </symbol>
    <symbol viewBox="0 0 18 18" id="user">
      <path d="M11.7812 10.5C14.0938 10.5 16 12.4062 16 14.7188V15.5C16 16.3438 15.3125 17 14.5 17H3.5C2.65625 17 2 16.3438 2 15.5V14.7188C2 12.4062 3.875 10.5 6.1875 10.5C7.09375 10.5 7.5 11 9 11C10.4688 11 10.875 10.5 11.7812 10.5ZM14.5 15.5V14.7188C14.5 13.2188 13.2812 12 11.7812 12C11.3125 12 10.5938 12.5 9 12.5C7.375 12.5 6.65625 12 6.1875 12C4.6875 12 3.5 13.2188 3.5 14.7188V15.5H14.5ZM9 10C6.5 10 4.5 8 4.5 5.5C4.5 3.03125 6.5 1 9 1C11.4688 1 13.5 3.03125 13.5 5.5C13.5 8 11.4688 10 9 10ZM9 2.5C7.34375 2.5 6 3.875 6 5.5C6 7.15625 7.34375 8.5 9 8.5C10.625 8.5 12 7.15625 12 5.5C12 3.875 10.625 2.5 9 2.5Z"/>
    </symbol>
    <symbol viewBox="0 0 18 18" id="comment">
      <path d="M3.4072 3.4072C3.45586 2.75283 3.75014 2.14105 4.23103 1.69459C4.71191 1.24813 5.34382 1.00001 6 1H13.2C13.699 1 14.1932 1.09829 14.6542 1.28926C15.1152 1.48023 15.5341 1.76013 15.887 2.11299C16.2399 2.46586 16.5198 2.88477 16.7107 3.3458C16.9017 3.80684 17 4.30098 17 4.8V9.6C17 10.2562 16.7519 10.8881 16.3054 11.369C15.859 11.8499 15.2472 12.1441 14.5928 12.1928C14.5441 12.8472 14.2499 13.4589 13.769 13.9054C13.2881 14.3519 12.6562 14.6 12 14.6H7.9336L5 16.8C4.3408 17.2944 3.4 16.824 3.4 16V14.592C2.74705 14.5416 2.13716 14.2467 1.69222 13.7662C1.24728 13.2856 1.00007 12.6549 1 12V6C1.00001 5.34382 1.24813 4.71191 1.69459 4.23103C2.14105 3.75014 2.75283 3.45586 3.4072 3.4072V3.4072ZM4.6144 3.4H12C12.6896 3.4 13.3509 3.67393 13.8385 4.16152C14.3261 4.64912 14.6 5.31044 14.6 6V10.9856C14.9332 10.9375 15.2379 10.771 15.4583 10.5165C15.6787 10.262 15.8 9.93664 15.8 9.6V4.8C15.8 4.11044 15.5261 3.44912 15.0385 2.96152C14.5509 2.47393 13.8896 2.2 13.2 2.2H6C5.66336 2.20001 5.33799 2.32132 5.08351 2.54171C4.82903 2.7621 4.66249 3.06681 4.6144 3.4ZM3.6 13.4H4.6V15.6L7.5336 13.4H12C12.3713 13.4 12.7274 13.2525 12.9899 12.9899C13.2525 12.7274 13.4 12.3713 13.4 12V6C13.4 5.6287 13.2525 5.2726 12.9899 5.01005C12.7274 4.7475 12.3713 4.6 12 4.6H3.6C3.2287 4.6 2.8726 4.7475 2.61005 5.01005C2.3475 5.2726 2.2 5.6287 2.2 6V12C2.2 12.7728 2.8272 13.4 3.6 13.4Z"/>
    </symbol>
    <symbol viewBox="0 0 18 18" id="pointer">
      <path d="M9.07113 0C9.07113 0 9.05987 0 9.05424 0C9.04862 0 9.04299 0 9.03736 0C5.14866 0 2 3.14866 2 7.03455C2 8.28107 2.3264 9.45443 2.89479 10.4702C4.07941 12.7128 9.05143 18 9.05143 18C9.05143 18 14.0234 12.7128 15.2081 10.4702C15.7793 9.45443 16.1029 8.28388 16.1029 7.03455C16.1057 3.14866 12.9542 0 9.07113 0ZM9.07113 9.98906C9.07113 9.98906 9.05987 9.98906 9.05424 9.98906C9.04862 9.98906 9.04299 9.98906 9.03736 9.98906C7.40535 9.98906 6.08285 8.66656 6.08285 7.03455C6.08285 5.40253 7.40535 4.08004 9.03736 4.08004C9.04299 4.08004 9.04862 4.08004 9.05424 4.08004C9.05987 4.08004 9.0655 4.08004 9.07113 4.08004C10.7031 4.08004 12.0256 5.40253 12.0256 7.03455C12.0256 8.66656 10.7031 9.98906 9.07113 9.98906Z"/>
    </symbol>
    <symbol viewBox="0 0 18 18" id="mail">
      <path d="M2.64718 4.02532C2.7119 4.01126 2.77661 4 2.84415 4H15.7877C15.8552 4 15.9228 4.01126 15.9847 4.02532L9.4116 10.1482C9.35814 10.1988 9.27372 10.1988 9.22026 10.1482L2.64718 4.02532ZM16.5925 13.5276C16.615 13.4516 16.6319 13.37 16.6319 13.2856V4.84415C16.6319 4.76254 16.6178 4.68657 16.5953 4.6106L12.0144 8.87916L16.5925 13.5276ZM11.3953 9.45599L9.98562 10.7672C9.79709 10.9417 9.5551 11.0317 9.31312 11.0317C9.07113 11.0317 8.82914 10.9445 8.64061 10.7672L7.28998 9.50946L2.63311 14.0988C2.70064 14.1157 2.77099 14.1297 2.84415 14.1297H15.7877C15.8524 14.1297 15.9171 14.1213 15.9762 14.1072L11.3953 9.45599ZM2.03658 4.6106C2.01407 4.68376 2 4.76254 2 4.84415V13.2856C2 13.3616 2.01407 13.4347 2.03377 13.5051L6.67657 8.93262L2.03658 4.6106Z"/>
    </symbol>
    <symbol viewBox="0 0 18 18" id="phone">
      <path d="M12.813 11.5905C13.6262 12.3896 14.279 12.9439 14.8783 13.7065C14.9149 13.7543 14.9515 13.8021 14.9909 13.8471C15.1569 14.0582 15.14 14.3621 14.9571 14.5675C14.7601 14.7898 14.5519 15.0121 14.3352 15.2287C13.9723 15.5917 13.6881 15.9237 13.221 16.2361C12.7933 16.5231 12.1967 16.5653 11.9013 16.5765C10.5197 16.6244 9.47577 15.9969 7.88597 14.9473C7.09528 14.424 6.29616 13.7712 5.55331 13.0283C4.81046 12.2855 4.15484 11.4864 3.63429 10.6957C2.58473 9.10586 1.95725 8.06193 2.00227 6.68035C2.01353 6.3849 2.05573 5.78837 2.34274 5.36067C2.65789 4.89357 2.98992 4.60938 3.35009 4.24639C3.56675 4.02973 3.78623 3.82151 4.01134 3.62454C4.21675 3.44164 4.51782 3.42476 4.73167 3.59077C4.77951 3.62735 4.82734 3.66393 4.87237 3.70333C5.63491 4.30267 6.18923 4.95548 6.98836 5.76867C7.22753 6.01066 7.22753 6.40178 6.95741 6.61844C6.54377 6.95047 5.88815 7.60328 5.60677 7.99159C5.54205 8.08163 5.50829 8.18855 5.54768 8.28704C5.9585 9.31408 6.63944 10.2342 7.49203 11.0868C8.34462 11.9394 9.26474 12.6203 10.2918 13.0311C10.3903 13.0705 10.5 13.0368 10.5872 12.972C10.9755 12.6907 11.6283 12.0322 11.9604 11.6214C12.1799 11.3513 12.5682 11.3513 12.8101 11.5905H12.813ZM13.5924 9.59828C13.8091 9.50824 13.9104 9.26343 13.8231 9.04677C13.4827 8.21669 12.9086 7.38662 12.1714 6.64658C11.4398 5.91499 10.621 5.34941 9.79936 5.00613C9.71495 4.96392 9.61365 4.94985 9.51517 4.97236C9.28725 5.02582 9.14656 5.25374 9.20002 5.47885L9.24785 5.68988L9.45045 5.77148C10.168 6.06693 10.9221 6.58749 11.5749 7.2403C12.2277 7.8931 12.7482 8.64721 13.0437 9.36473C13.1112 9.52793 13.2688 9.62642 13.4348 9.62642C13.4883 9.62642 13.5417 9.61516 13.5952 9.59546L13.5924 9.59828ZM16.5019 9.26062C16.727 9.20153 16.862 8.9708 16.8001 8.74288C16.409 7.27688 15.5311 5.83057 14.2565 4.55591C12.9874 3.28407 11.5383 2.40616 10.0723 2.01504C9.8472 1.95313 9.61646 2.08819 9.55456 2.3133C9.49547 2.53841 9.62772 2.76914 9.85283 2.83104C11.1753 3.18277 12.4922 3.98752 13.6599 5.15526C14.8277 6.32299 15.6324 7.63986 15.9841 8.96235C16.0348 9.15088 16.2064 9.27469 16.3921 9.27469C16.4287 9.27469 16.4653 9.26906 16.5019 9.26062Z"/>
    </symbol>
    <symbol viewBox="0 0 18 18" id="arrow-up">
      <path d="M3.07031 10.2187L2.38281 9.53125C2.10156 9.21875 2.10156 8.75 2.38281 8.46875L8.47656 2.40625C8.75781 2.09375 9.22656 2.09375 9.50781 2.40625L15.6016 8.46875C15.8828 8.75 15.8828 9.25 15.6016 9.53125L14.9141 10.2187C14.6016 10.5312 14.1328 10.5 13.8203 10.2187L10.2578 6.4375L10.2578 15.4375C10.2578 15.8437 9.91406 16.1875 9.50781 16.1875L8.50781 16.1875C8.07031 16.1875 7.75781 15.8437 7.75781 15.4375L7.75781 6.4375L4.16406 10.2187C3.85156 10.5 3.38281 10.5312 3.07031 10.2187Z"/>
    </symbol>
    <symbol viewBox="0 0 18 18" id="arrow-down">
      <path d="M14.9141 8.14062L15.6016 8.82812C15.8828 9.14062 15.8828 9.60937 15.6016 9.89062L9.50781 15.9531C9.22656 16.2656 8.75781 16.2656 8.47656 15.9531L2.38281 9.89062C2.10156 9.60938 2.10156 9.10938 2.38281 8.82812L3.07031 8.14062C3.38281 7.82812 3.85156 7.85937 4.16406 8.14062L7.72656 11.9219L7.72656 2.92187C7.72656 2.51562 8.07031 2.17187 8.47656 2.17187L9.47656 2.17187C9.91406 2.17187 10.2266 2.51562 10.2266 2.92187L10.2266 11.9219L13.8203 8.14062C14.1328 7.85937 14.6016 7.82812 14.9141 8.14062Z"/>
    </symbol>
    <symbol viewBox="0 0 18 18" id="arrow-left">
      <path d="M10.0313 15.1016L9.34375 15.7891C9.03125 16.0703 8.5625 16.0703 8.28125 15.7891L2.21875 9.69531C1.90625 9.41406 1.90625 8.94531 2.21875 8.66406L8.28125 2.57031C8.5625 2.28906 9.0625 2.28906 9.34375 2.57031L10.0312 3.25781C10.3438 3.57031 10.3125 4.03906 10.0312 4.35156L6.25 7.91406L15.25 7.91406C15.6563 7.91406 16 8.25781 16 8.66406V9.66406C16 10.1016 15.6563 10.4141 15.25 10.4141L6.25 10.4141L10.0313 14.0078C10.3125 14.3203 10.3438 14.7891 10.0313 15.1016Z"/>
    </symbol>
    <symbol viewBox="0 0 18 18" id="arrow-right">
      <path d="M7.95312 3.25781L8.64062 2.57031C8.95312 2.28906 9.42187 2.28906 9.70312 2.57031L15.7656 8.66406C16.0781 8.94531 16.0781 9.41406 15.7656 9.69531L9.70312 15.7891C9.42188 16.0703 8.92188 16.0703 8.64062 15.7891L7.95312 15.1016C7.64062 14.7891 7.67188 14.3203 7.95312 14.0078L11.7344 10.4453L2.73438 10.4453C2.32812 10.4453 1.98438 10.1016 1.98438 9.69531L1.98437 8.69531C1.98437 8.25781 2.32812 7.94531 2.73437 7.94531L11.7344 7.94531L7.95312 4.35156C7.67187 4.03906 7.64062 3.57031 7.95312 3.25781Z"/>
    </symbol>
  </defs>
</svg>     